<svg xmlns="http://www.w3.org/2000/svg" viewBox="0 0 157.29 146"><path d="M153.48,109c-9.49-2.19-19-4.31-28.45-6.57-4.2-1-4-1.08-3-5.35a6.71,6.71,0,0,1,3.63-4.85c4.43-2.37,7.26-6.21,9-10.88,3.57-9.41,7.19-18.79,10.79-28.18,1.34-3.49,2.68-7,4-10.48.33-.86.75-1.87-.13-2.54s-1.7,0-2.38.68c-.48.46-1,.87-1.49,1.33q-9.81,9.23-19.63,18.46c-.7.66-1.33,2-2.33,1.56-1.18-.48-.57-1.92-.59-2.92-.06-5.33.08-10.66-.08-16-.33-10.88-3.78-20.64-11.62-28.38C99.53,3.32,85.24.05,69.37,2.88,49.62,6.4,35.74,22.05,34.66,42.05c-.33,5.89-.12,11.82-.21,17.73,0,.84.53,2.06-.53,2.45s-1.53-.8-2.16-1.4Q21.19,50.95,10.65,41c-.72-.68-1.49-1.65-2.55-.9S7.72,41.94,8,42.88a6.61,6.61,0,0,0,.29.68c4.5,11.81,9.05,23.6,13.47,35.43,1.81,4.84,3.87,9.65,8.53,12.2,3.53,1.94,5,4.62,5.79,8.24.38,1.64.21,2.2-1.44,2.56-7.71,1.69-15.41,3.46-23.11,5.23-3.1.71-6.17,1.48-9.44,2.27a4.53,4.53,0,0,0,3,1.37,146.23,146.23,0,0,1,20.67,5.65c13.19,4.56,25.29,11.34,37.35,18.24,3.06,1.75,5.69,3.35,4.75,7.49-.28,1.21.34,1.84,1.66,1.83q9.24,0,18.48,0c1.29,0,2-.53,1.69-1.79-.9-4,1.3-5.93,4.51-7.39,1.43-.66,2.76-1.54,4.12-2.34,16.06-9.46,32.83-17.19,51.17-21.15,1.9-.41,4-.21,5.79-1.67C154.66,109,154,109.12,153.48,109Zm-70,13.43c-1.28,3.94-2.58,7.88-3.87,11.83-.17.53-.15,1.28-1,1.23-.58,0-.64-.65-.79-1.12-1.52-4.74-3-9.49-4.61-14.21-.47-1.4-.32-2,1.3-2,1.41.06,2.83,0,4.24,0,.5,0,1,0,1.5,0C84.84,118.21,84.84,118.21,83.46,122.43ZM119,90.6a3.17,3.17,0,0,1-.29.92.83.83,0,0,1,0,1c-.58,9.06-5.47,15.22-13.2,19.38a22.38,22.38,0,0,1-10.82,2.49c-10.64,0-21.29,0-31.93,0A24.24,24.24,0,0,1,39,96a5.8,5.8,0,0,1-.25-3,1.48,1.48,0,0,1-.1-1.48,3.27,3.27,0,0,1-.32-2.17c0-14.31,0-28.62,0-42.93A5.63,5.63,0,0,1,40.14,42q6.72-6.51,13.24-13.2c1.26-1.3,2-1.39,3.39,0,6.62,6.77,13.4,13.39,20,20.17,1.47,1.51,2.34,1.48,3.8,0,6.63-6.76,13.41-13.38,20-20.14,1.32-1.35,2.13-1.33,3.41,0,4.52,4.64,9.12,9.21,13.73,13.76A3.79,3.79,0,0,1,119,45.42Q119,68,119,90.6Z" style="fill:#272727"/><path d="M38.58,144c-7.57,0-15.14,0-22.71,0-1.93,0-2.66-.42-2.51-2.51a35.9,35.9,0,0,1,8.31-20.45,2.54,2.54,0,0,1,3.24-.9c13.25,4.84,25.51,11.66,37.64,18.74,1.85,1.08,1.46,2.72,1.22,4.17S62,144,61.05,144C53.56,144.07,46.07,144,38.58,144Z" style="fill:#272727"/><path d="M118.85,144c-7.5,0-15,0-22.49,0-1,0-2.45.67-2.71-.9s-.56-3.22,1.46-4.3c5.81-3.12,11.48-6.51,17.3-9.62A161.56,161.56,0,0,1,132,120.44c1.77-.67,2.87-.49,4.07,1a35.67,35.67,0,0,1,8,20.32c.12,1.82-.49,2.31-2.22,2.29C134.18,144,126.51,144,118.85,144Z" style="fill:#272727"/><path d="M118.69,92.5c-1-.15-1-.94-1-1.7,0-15.19,0-30.39.5-45.62v2.39q0,20.57,0,41.14c0,1-.37,2,.53,2.81A.83.83,0,0,1,118.69,92.5Z" style="fill:#f1f1f1"/><path d="M38.67,91.52c.85-.71.54-1.69.54-2.57,0-6.33,0-12.66,0-19a4.1,4.1,0,0,1,.48-2.78V91.76A1.08,1.08,0,0,1,38.77,93,1.48,1.48,0,0,1,38.67,91.52Z" style="fill:#f1f1f1"/><path d="M78.67,103.84c-9.51-.67-17.74-3.64-22.38-12.79-.86-1.71-2.28-3.67-1-5.6s3.37-.31,5.09-.37c3-.12,4.7,1.42,5.41,4.31a22.94,22.94,0,0,0,1.46,3.7c.23.53.53,1.14,1.23,1.07A1.31,1.31,0,0,0,69.58,93c.88-5.75,4.44-6.67,9.69-6.35,6.55.39,13.1-.87,19.59-1.92,3.4-.55,4.34.5,3.27,3.8-2.68,8.19-8.85,12.36-16.76,14.42A25.78,25.78,0,0,1,78.67,103.84Z" style="fill:#272727"/><path d="M99.83,65.1c3.07,0,6.13,0,9.2,0a2.48,2.48,0,0,1,2.55,1.17c.52,1-.06,1.89-.65,2.73-2.68,3.84-9.32,5.94-14.61,4.65-3.13-.77-6-1.94-8-4.67a2.62,2.62,0,0,1-.56-2.77c.51-1.06,1.54-1.11,2.57-1.11Z" style="fill:#272727"/><path d="M57.71,65.1c3.15,0,6.3,0,9.46,0,1,0,1.88.07,2.38,1a2.51,2.51,0,0,1-.45,2.77c-2.61,4-9.67,6.17-15,4.72-3-.81-5.8-2-7.66-4.67-.6-.87-1.07-1.75-.52-2.75a2.39,2.39,0,0,1,2.37-1.05C51.4,65.11,54.55,65.1,57.71,65.1Z" style="fill:#272727"/><path d="M39.59,45.2V65.43h-.25V45.15Z" style="fill:#f1f1f1"/></svg>